<?xml version="1.0" encoding="utf-8"?>
<!-- Generator: Adobe Illustrator 17.0.2, SVG Export Plug-In . SVG Version: 6.00 Build 0)  -->
<!DOCTYPE svg PUBLIC "-//W3C//DTD SVG 1.1//EN" "http://www.w3.org/Graphics/SVG/1.1/DTD/svg11.dtd">
<svg version="1.1" id="Layer_1" xmlns="http://www.w3.org/2000/svg" xmlns:xlink="http://www.w3.org/1999/xlink" x="0px" y="0px"
	 width="385.6px" height="78.8px" viewBox="0 0 385.6 78.8" style="enable-background:new 0 0 385.6 78.8;" xml:space="preserve">
<style type="text/css">
	.st0{fill:#022169;}
	.st1{fill:#FFFFFF;}
	.st2{fill:#7D868C;}
</style>
<g>
	<g>
		<path class="st0" d="M76.7,39.8c0,20.6-16.7,37.4-37.4,37.4C18.7,77.1,2,60.4,2,39.8C2,19.1,18.7,2.4,39.4,2.4
			C60,2.4,76.7,19.1,76.7,39.8z"/>
		<polygon class="st1" points="56.1,55 40.9,20.1 37.9,20.1 22.6,55.2 26.6,59.4 39.5,30 52.1,59.3 		"/>
	</g>
	<g>
		<path class="st2" d="M96.1,62.4h1.8l4.2,12.3l4.1-12.4h1.4l4.1,12.4l4.2-12.3h1.8l-5.3,14.9h-1.4l-4.1-12l-4.1,12h-1.4L96.1,62.4z
			"/>
		<path class="st2" d="M126.8,62.4h10.7v1.5h-9V69h8.1v1.5h-8.1v5.2h9.1v1.5h-10.8V62.4z"/>
		<path class="st2" d="M152.5,62.3h1.6l6.7,14.9H159l-1.7-3.9h-8.1l-1.8,3.9h-1.7L152.5,62.3z M156.6,71.8l-3.4-7.5l-3.4,7.5H156.6z
			"/>
		<path class="st2" d="M169.8,62.4h1.7v13.2h8.3v1.5h-10V62.4z"/>
		<path class="st2" d="M190.8,64h-5v-1.5h11.6V64h-5v13.3h-1.7V64z"/>
		<path class="st2" d="M206.7,62.4h1.7V69h8.5v-6.6h1.7v14.8h-1.7v-6.7h-8.5v6.7h-1.7V62.4z"/>
		<path class="st2" d="M240.7,69.9L240.7,69.9c0-4.2,3.1-7.7,7.5-7.7c2.7,0,4.3,1,5.8,2.3l-1.1,1.2c-1.2-1.2-2.6-2-4.6-2
			c-3.3,0-5.7,2.7-5.7,6.1v0c0,3.4,2.5,6.1,5.7,6.1c2,0,3.4-0.8,4.8-2.1l1.1,1.1c-1.5,1.6-3.2,2.6-5.9,2.6
			C243.8,77.5,240.7,74.1,240.7,69.9z"/>
		<path class="st2" d="M262,69.9L262,69.9c0-4.1,3.1-7.7,7.6-7.7c4.5,0,7.5,3.5,7.5,7.6c0,0,0,0,0,0c0,4.1-3.1,7.7-7.6,7.7
			C265,77.5,262,73.9,262,69.9z M275.3,69.9L275.3,69.9c0-3.4-2.5-6.1-5.8-6.1c-3.4,0-5.8,2.7-5.8,6.1v0c0,3.4,2.5,6.1,5.8,6.1
			C272.9,75.9,275.3,73.2,275.3,69.9z"/>
		<path class="st2" d="M286.5,71v-8.6h1.7v8.5c0,3.2,1.7,5,4.5,5c2.7,0,4.5-1.6,4.5-4.9v-8.6h1.7v8.5c0,4.3-2.5,6.6-6.2,6.6
			C288.9,77.5,286.5,75.2,286.5,71z"/>
		<path class="st2" d="M308.8,62.4h1.6l9.3,11.9V62.4h1.6v14.8H320l-9.6-12.1v12.1h-1.6V62.4z"/>
		<path class="st2" d="M330.7,75.1l1-1.2c1.5,1.4,3,2.1,5.1,2.1c2,0,3.3-1.1,3.3-2.5v0c0-1.4-0.7-2.2-3.8-2.8c-3.4-0.7-5-1.8-5-4.3
			v0c0-2.3,2-4,4.9-4c2.2,0,3.7,0.6,5.2,1.8l-1,1.3c-1.4-1.1-2.7-1.6-4.3-1.6c-1.9,0-3.1,1.1-3.1,2.4v0c0,1.4,0.8,2.2,4,2.9
			c3.3,0.7,4.8,1.9,4.8,4.2v0c0,2.5-2.1,4.2-5.1,4.2C334.4,77.4,332.4,76.7,330.7,75.1z"/>
		<path class="st2" d="M351.3,62.4H362v1.5h-9V69h8.1v1.5h-8.1v5.2h9.1v1.5h-10.8V62.4z"/>
		<path class="st2" d="M371.5,62.4h1.7v13.2h8.3v1.5h-10V62.4z"/>
	</g>
	<g>
		<path class="st0" d="M96.1,6.9H81.5V2.3h34.2v4.5h-14.6v39h-5V6.9z"/>
		<path class="st0" d="M119.8,13.7h4.8v8.4c2.4-5.4,7-9.2,13.1-9v5.2h-0.4c-7,0-12.8,5-12.8,14.7v12.8h-4.8V13.7z"/>
		<path class="st0" d="M148.3,33.7v-20h4.8v18.8c0,6,3.2,9.7,8.9,9.7c5.5,0,9.6-4,9.6-10.1V13.7h4.7v32.2h-4.7v-5.6
			c-2.2,3.5-5.5,6.3-11,6.3C152.8,46.6,148.3,41.3,148.3,33.7z"/>
		<path class="st0" d="M202.5,42.5c4.4,0,7.5-1.8,10.1-4.5l3,2.7c-3.2,3.6-7.2,6-13.3,6c-8.8,0-16.1-6.8-16.1-16.8
			c0-9.3,6.5-16.8,15.4-16.8c9.5,0,15,7.6,15,17c0,0.4,0,0.9-0.1,1.7h-25.5C191.9,38.5,196.9,42.5,202.5,42.5z M211.9,27.9
			c-0.6-5.8-3.9-10.8-10.3-10.8c-5.5,0-9.8,4.6-10.5,10.8H211.9z"/>
		<path class="st0" d="M226.4,13.7h4.8v6.5c2.6-3.9,6.4-7.2,12.3-7.2c7.7,0,15.4,6.1,15.4,16.7v0.1c0,10.5-7.6,16.7-15.4,16.7
			c-6,0-9.8-3.2-12.3-6.8v16.1h-4.8V13.7z M254,29.9v-0.1c0-7.6-5.2-12.4-11.3-12.4c-6,0-11.6,5-11.6,12.4v0.1
			c0,7.5,5.7,12.4,11.6,12.4C248.9,42.3,254,37.7,254,29.9z"/>
		<path class="st0" d="M267,29.9v-0.1c0-9.1,7.1-16.8,16.8-16.8c9.6,0,16.7,7.6,16.7,16.7v0.1c0,9.1-7.2,16.8-16.9,16.8
			C274,46.6,267,39,267,29.9z M295.6,29.9v-0.1c0-6.9-5.2-12.6-11.9-12.6c-7,0-11.8,5.7-11.8,12.4v0.1c0,6.9,5.1,12.5,11.9,12.5
			C290.8,42.3,295.6,36.7,295.6,29.9z"/>
		<path class="st0" d="M310.6,1.4h5.5v5.3h-5.5V1.4z M310.9,13.7h4.8v32.2h-4.8V13.7z"/>
		<path class="st0" d="M328.1,13.7h4.8v5.6c2.1-3.5,5.5-6.3,11-6.3c7.8,0,12.3,5.2,12.3,12.9v20h-4.8V27.1c0-6-3.2-9.7-8.9-9.7
			c-5.5,0-9.6,4-9.6,10.1v18.4h-4.8V13.7z"/>
		<path class="st0" d="M367.5,37.4V17.9H363v-4.2h4.5V4h4.8v9.7h10.2v4.2h-10.2v18.8c0,3.9,2.2,5.4,5.4,5.4c1.6,0,3-0.3,4.7-1.1v4.1
			c-1.7,0.9-3.5,1.4-5.8,1.4C371.4,46.4,367.5,43.9,367.5,37.4z"/>
	</g>
</g>
</svg>
