<?xml version="1.0" encoding="utf-8"?>
<!-- Generator: Adobe Illustrator 18.1.1, SVG Export Plug-In . SVG Version: 6.00 Build 0)  -->
<!DOCTYPE svg PUBLIC "-//W3C//DTD SVG 1.1//EN" "http://www.w3.org/Graphics/SVG/1.1/DTD/svg11.dtd">
<svg version="1.1" id="Layer_1" xmlns="http://www.w3.org/2000/svg" xmlns:xlink="http://www.w3.org/1999/xlink" x="0px" y="0px"
	 viewBox="0 333.2 612 122.7" enable-background="new 0 333.2 612 122.7" xml:space="preserve">
<g>
	<g>
		<g>
			<path fill="#7D868C" d="M146.7,434.2h2.3v20.8h-2.3V434.2z"/>
			<path fill="#7D868C" d="M157.9,434.2h2.1l13,16.7v-16.7h2.3v20.8h-1.9L160,437.9v17.1h-2.3v-20.8H157.9z"/>
			<path fill="#7D868C" d="M183.1,451.9l1.4-1.8c2.1,1.9,4.2,3,7,3c2.8,0,4.6-1.4,4.6-3.5l0,0c0-1.9-1.1-3-5.5-3.9
				c-4.7-1.1-7-2.6-7-6l0,0c0-3.3,2.8-5.6,6.9-5.6c3,0,5.3,0.9,7.2,2.6l-1.4,1.8c-1.9-1.6-3.9-2.3-6-2.3c-2.6,0-4.4,1.4-4.4,3.3l0,0
				c0,1.9,1.1,3,5.6,4c4.6,1.1,6.7,2.6,6.7,5.8l0,0c0,3.5-3,5.8-7,5.8C188.2,455.1,185.5,454,183.1,451.9z"/>
			<path fill="#7D868C" d="M211.4,436.3h-7v-2.1h16.4v2.1h-7v18.6h-2.3V436.3z"/>
			<path fill="#7D868C" d="M228.3,434.2h2.3v20.8h-2.3V434.2z"/>
			<path fill="#7D868C" d="M245.2,436.3h-7v-2.1h16.4v2.1h-7v18.6h-2.3V436.3z"/>
			<path fill="#7D868C" d="M261.5,446.1V434h2.3v12c0,4.4,2.3,7,6.3,7c3.9,0,6.3-2.3,6.3-6.9V434h2.3v12c0,6-3.5,9.1-8.6,9.1
				C265,455.3,261.5,452.1,261.5,446.1z"/>
			<path fill="#7D868C" d="M292.8,436.3h-7v-2.1h16.4v2.1h-7v18.6h-2.3V436.3z"/>
			<path fill="#7D868C" d="M309.7,434.2h2.3v20.8h-2.3V434.2z"/>
			<path fill="#7D868C" d="M320.2,444.5L320.2,444.5c0-5.8,4.2-10.7,10.6-10.7s10.6,4.9,10.6,10.7l0,0c0,5.8-4.2,10.7-10.6,10.7
				S320.2,450.3,320.2,444.5z M338.9,444.5L338.9,444.5c0-4.7-3.5-8.6-8.3-8.6s-8.1,3.9-8.1,8.4l0,0c0,4.7,3.5,8.6,8.3,8.6
				C335.5,453,338.9,449.3,338.9,444.5z"/>
			<path fill="#7D868C" d="M349.3,434.2h2.1l13,16.7v-16.7h2.3v20.8h-1.9l-13.4-17.1v17.1h-2.3v-20.8H349.3z"/>
			<path fill="#7D868C" d="M383.4,434h2.1l9.5,20.9h-2.5l-2.5-5.5h-11.3l-2.5,5.5h-2.5L383.4,434z M389.2,447.4l-4.7-10.6l-4.7,10.6
				H389.2z"/>
			<path fill="#7D868C" d="M402,434.2h2.3v18.6h11.6v2.1h-14.1v-20.8H402z"/>
			<path fill="#7D868C" d="M443,434h2.1l9.5,20.9h-2.5l-2.5-5.5h-11.3l-2.5,5.5h-2.5L443,434z M448.6,447.4l-4.7-10.6l-4.7,10.6
				H448.6z"/>
			<path fill="#7D868C" d="M461.6,434.2h7.2c6.5,0,11.1,4.4,11.1,10.4l0,0c0,5.8-4.6,10.4-11.1,10.4h-7.2V434.2z M468.8,452.6
				c5.3,0,8.6-3.5,8.6-8.1l0,0c0-4.6-3.3-8.3-8.6-8.3h-4.9v16.4H468.8z"/>
			<path fill="#7D868C" d="M484.7,434.2h2.6l7.4,17.9l7.4-17.9h2.5l-9,20.9h-2.1L484.7,434.2z"/>
			<path fill="#7D868C" d="M511.9,434.2h2.3v20.8h-2.3V434.2z"/>
			<path fill="#7D868C" d="M522,451.9l1.4-1.8c2.1,1.9,4.2,3,7,3c2.8,0,4.6-1.4,4.6-3.5l0,0c0-1.9-1.1-3-5.5-3.9c-4.7-1.1-7-2.6-7-6
				l0,0c0-3.3,2.8-5.6,6.9-5.6c3,0,5.3,0.9,7.2,2.6l-1.4,1.8c-1.9-1.6-3.9-2.3-6-2.3c-2.6,0-4.4,1.4-4.4,3.3l0,0c0,1.9,1.1,3,5.6,4
				s6.7,2.6,6.7,5.8l0,0c0,3.5-3,5.8-7,5.8C527.1,455.1,524.4,454,522,451.9z"/>
			<path fill="#7D868C" d="M544.3,444.5L544.3,444.5c0-5.8,4.2-10.7,10.6-10.7s10.6,4.9,10.6,10.7l0,0c0,5.8-4.2,10.7-10.6,10.7
				S544.3,450.3,544.3,444.5z M563.1,444.5L563.1,444.5c0-4.7-3.5-8.6-8.3-8.6s-8.1,3.9-8.1,8.4l0,0c0,4.7,3.5,8.6,8.3,8.6
				C559.6,453,563.1,449.3,563.1,444.5z"/>
			<path fill="#7D868C" d="M573.3,434.2h9c2.6,0,4.6,0.7,6,2.1c1.1,1.1,1.6,2.5,1.6,4l0,0c0,3.5-2.3,5.5-5.6,6l6.3,8.4h-2.8l-6-8.1
				l0,0h-5.8v8.1h-2.6V434.2z M582.1,444.7c3.2,0,5.3-1.6,5.3-4.2l0,0c0-2.6-1.9-4-5.3-4h-6.3v8.4h6.3V444.7z"/>
			<path fill="#7D868C" d="M596.3,451.9l1.4-1.8c2.1,1.9,4.2,3,7,3c2.8,0,4.6-1.4,4.6-3.5l0,0c0-1.9-1.1-3-5.5-3.9
				c-4.7-1.1-7-2.6-7-6l0,0c0-3.3,2.8-5.6,6.9-5.6c3,0,5.3,0.9,7.2,2.6l-1.4,1.8c-1.9-1.6-3.9-2.3-6-2.3c-2.6,0-4.4,1.4-4.4,3.3l0,0
				c0,1.9,1.1,3,5.6,4c4.6,1.1,6.7,2.6,6.7,5.8l0,0c0,3.5-3,5.8-7,5.8C601.6,455.1,598.8,454,596.3,451.9z"/>
		</g>
		<g>
			<path fill="#022169" d="M147.9,342h-23.7v-7.4h55.4v7.4h-23.7v63.3h-8.1V342H147.9z"/>
			<path fill="#022169" d="M186.2,353.3h7.7v13.5c3.9-8.6,11.4-14.9,21.3-14.6v8.4h-0.5c-11.4,0-20.8,8.1-20.8,23.9v20.8h-7.7
				L186.2,353.3L186.2,353.3z"/>
			<path fill="#022169" d="M232.3,385.6v-32.4h7.7v30.4c0,9.7,5.3,15.7,14.4,15.7c8.8,0,15.7-6.5,15.7-16.4v-29.9h7.7v52.2h-7.7
				v-9.1c-3.5,5.6-8.8,10.2-17.8,10.2C239.7,406.4,232.3,397.9,232.3,385.6z"/>
			<path fill="#022169" d="M320.2,399.7c7.2,0,12.1-3,16.4-7.4l4.9,4.4c-5.3,5.8-11.6,9.8-21.5,9.8c-14.2,0-26-11.1-26-27.3
				c0-15.1,10.6-27.3,25-27.3c15.5,0,24.3,12.3,24.3,27.6c0,0.7,0,1.6-0.2,2.6h-41.3C303,393.4,311.1,399.7,320.2,399.7z
				 M335.5,376.1c-0.9-9.5-6.3-17.6-16.7-17.6c-9,0-15.8,7.4-16.9,17.6H335.5z"/>
			<path fill="#022169" d="M358.9,353.3h7.7v10.6c4.2-6.3,10.4-11.6,20-11.6c12.5,0,25,9.8,25,27.1v0.2c0,17.1-12.3,27.1-25,27.1
				c-9.7,0-16-5.3-20-11.1v26.2h-7.7V353.3z M403.6,379.5v-0.2c0-12.3-8.4-20.2-18.3-20.2c-9.7,0-18.8,8.1-18.8,20v0.2
				c0,12.1,9.1,20.2,18.8,20.2C395.3,399.5,403.6,392,403.6,379.5z"/>
			<path fill="#022169" d="M424.7,379.5v-0.2c0-14.8,11.4-27.3,27.3-27.3c15.7,0,27.1,12.3,27.1,27.1v0.2
				c0,14.8-11.6,27.3-27.3,27.3C436.1,406.6,424.7,394.2,424.7,379.5z M471.1,379.5v-0.2c0-11.3-8.4-20.4-19.3-20.4
				c-11.3,0-19,9.1-19,20.2v0.2c0,11.3,8.3,20.2,19.3,20.2C463.2,399.5,471.1,390.5,471.1,379.5z"/>
			<path fill="#022169" d="M495.2,333.2h8.8v8.6h-8.8V333.2z M495.8,353.3h7.7v52.1h-7.7V353.3z"/>
			<path fill="#022169" d="M523.7,353.3h7.7v9.1c3.3-5.6,8.8-10.2,17.8-10.2c12.7,0,20,8.4,20,20.9v32.2h-7.7v-30.4
				c0-9.7-5.3-15.7-14.4-15.7c-9,0-15.7,6.5-15.7,16.4v29.9h-7.7V353.3z"/>
			<path fill="#022169" d="M587.4,391.4v-31.3h-7.2v-6.9h7.2v-15.8h7.7v15.7h16.5v6.9h-16.5v30.4c0,6.3,3.5,8.6,8.8,8.6
				c2.6,0,4.9-0.5,7.6-1.8v6.7c-2.6,1.4-5.6,2.3-9.3,2.3C593.9,406.2,587.4,402.2,587.4,391.4z"/>
		</g>
	</g>
	<path fill="#022169" d="M109.7,389.7c0,30.2-24.6,54.9-54.9,54.9C24.6,444.5,0,419.9,0,389.7c0-30.2,24.6-54.9,54.9-54.9
		S109.7,359.4,109.7,389.7z"/>
	<polygon fill="#FFFFFF" points="79.3,412 57.2,360.8 52.8,360.8 30.2,412.4 36.1,418.5 55,375.2 73.5,418.3 	"/>
</g>
</svg>
