<?xml version="1.0" encoding="utf-8"?>
<!-- Generator: Adobe Illustrator 18.1.1, SVG Export Plug-In . SVG Version: 6.00 Build 0)  -->
<!DOCTYPE svg PUBLIC "-//W3C//DTD SVG 1.1//EN" "http://www.w3.org/Graphics/SVG/1.1/DTD/svg11.dtd">
<svg version="1.1" id="Layer_1" xmlns="http://www.w3.org/2000/svg" xmlns:xlink="http://www.w3.org/1999/xlink" x="0px" y="0px"
	 viewBox="0 0 348 69.4" enable-background="new 0 0 348 69.4" xml:space="preserve">
<g>
	<g>
		<g>
			<path fill="#7D868C" d="M83.4,56.4h1.3v11.8h-1.3V56.4z"/>
			<path fill="#7D868C" d="M89.8,56.4h1.2l7.4,9.5v-9.5h1.3v11.8h-1.1l-7.6-9.7v9.7h-1.3V56.4z"/>
			<path fill="#7D868C" d="M104.1,66.5l0.8-1c1.2,1.1,2.4,1.7,4,1.7c1.6,0,2.6-0.8,2.6-2v0c0-1.1-0.6-1.7-3.1-2.2
				c-2.7-0.6-4-1.5-4-3.4v0c0-1.9,1.6-3.2,3.9-3.2c1.7,0,3,0.5,4.1,1.5l-0.8,1c-1.1-0.9-2.2-1.3-3.4-1.3c-1.5,0-2.5,0.8-2.5,1.9v0
				c0,1.1,0.6,1.7,3.2,2.3c2.6,0.6,3.8,1.5,3.8,3.3v0c0,2-1.7,3.3-4,3.3C107,68.3,105.5,67.7,104.1,66.5z"/>
			<path fill="#7D868C" d="M120.2,57.6h-4v-1.2h9.3v1.2h-4v10.6h-1.3V57.6z"/>
			<path fill="#7D868C" d="M129.8,56.4h1.3v11.8h-1.3V56.4z"/>
			<path fill="#7D868C" d="M139.4,57.6h-4v-1.2h9.3v1.2h-4v10.6h-1.3V57.6z"/>
			<path fill="#7D868C" d="M148.7,63.2v-6.9h1.3v6.8c0,2.5,1.3,4,3.6,4c2.2,0,3.6-1.3,3.6-3.9v-6.9h1.3v6.8c0,3.4-2,5.2-4.9,5.2
				C150.7,68.4,148.7,66.6,148.7,63.2z"/>
			<path fill="#7D868C" d="M166.5,57.6h-4v-1.2h9.3v1.2h-4v10.6h-1.3V57.6z"/>
			<path fill="#7D868C" d="M176.1,56.4h1.3v11.8h-1.3V56.4z"/>
			<path fill="#7D868C" d="M182.1,62.3L182.1,62.3c0-3.3,2.4-6.1,6-6.1s6,2.8,6,6.1c0,0,0,0,0,0c0,3.3-2.4,6.1-6,6.1
				S182.1,65.6,182.1,62.3z M192.7,62.3L192.7,62.3c0-2.7-2-4.9-4.7-4.9s-4.6,2.2-4.6,4.8v0c0,2.7,2,4.9,4.7,4.9
				S192.7,65,192.7,62.3z"/>
			<path fill="#7D868C" d="M198.6,56.4h1.2l7.4,9.5v-9.5h1.3v11.8h-1.1l-7.6-9.7v9.7h-1.3V56.4z"/>
			<path fill="#7D868C" d="M218,56.3h1.2l5.4,11.9h-1.4l-1.4-3.1h-6.4l-1.4,3.1h-1.4L218,56.3z M221.3,63.9l-2.7-6l-2.7,6H221.3z"/>
			<path fill="#7D868C" d="M228.6,56.4h1.3v10.6h6.6v1.2h-8V56.4z"/>
			<path fill="#7D868C" d="M251.9,56.3h1.2l5.4,11.9h-1.4l-1.4-3.1h-6.4l-1.4,3.1h-1.4L251.9,56.3z M255.1,63.9l-2.7-6l-2.7,6H255.1
				z"/>
			<path fill="#7D868C" d="M262.5,56.4h4.1c3.7,0,6.3,2.5,6.3,5.9v0c0,3.3-2.6,5.9-6.3,5.9h-4.1V56.4z M266.6,66.9
				c3,0,4.9-2,4.9-4.6v0c0-2.6-1.9-4.7-4.9-4.7h-2.8v9.3H266.6z"/>
			<path fill="#7D868C" d="M275.6,56.4h1.5l4.2,10.2l4.2-10.2h1.4l-5.1,11.9h-1.2L275.6,56.4z"/>
			<path fill="#7D868C" d="M291.1,56.4h1.3v11.8h-1.3V56.4z"/>
			<path fill="#7D868C" d="M296.8,66.5l0.8-1c1.2,1.1,2.4,1.7,4,1.7c1.6,0,2.6-0.8,2.6-2v0c0-1.1-0.6-1.7-3.1-2.2
				c-2.7-0.6-4-1.5-4-3.4v0c0-1.9,1.6-3.2,3.9-3.2c1.7,0,3,0.5,4.1,1.5l-0.8,1c-1.1-0.9-2.2-1.3-3.4-1.3c-1.5,0-2.5,0.8-2.5,1.9v0
				c0,1.1,0.6,1.7,3.2,2.3c2.6,0.6,3.8,1.5,3.8,3.3v0c0,2-1.7,3.3-4,3.3C299.7,68.3,298.2,67.7,296.8,66.5z"/>
			<path fill="#7D868C" d="M309.5,62.3L309.5,62.3c0-3.3,2.4-6.1,6-6.1c3.6,0,6,2.8,6,6.1c0,0,0,0,0,0c0,3.3-2.4,6.1-6,6.1
				C311.9,68.4,309.5,65.6,309.5,62.3z M320.2,62.3L320.2,62.3c0-2.7-2-4.9-4.7-4.9c-2.7,0-4.6,2.2-4.6,4.8v0c0,2.7,2,4.9,4.7,4.9
				C318.2,67.1,320.2,65,320.2,62.3z"/>
			<path fill="#7D868C" d="M326,56.4h5.1c1.5,0,2.6,0.4,3.4,1.2c0.6,0.6,0.9,1.4,0.9,2.3v0c0,2-1.3,3.1-3.2,3.4l3.6,4.8h-1.6
				l-3.4-4.6h0h-3.3v4.6H326V56.4z M331,62.4c1.8,0,3-0.9,3-2.4v0c0-1.5-1.1-2.3-3-2.3h-3.6v4.8H331z"/>
			<path fill="#7D868C" d="M339.1,66.5l0.8-1c1.2,1.1,2.4,1.7,4,1.7c1.6,0,2.6-0.8,2.6-2v0c0-1.1-0.6-1.7-3.1-2.2
				c-2.7-0.6-4-1.5-4-3.4v0c0-1.9,1.6-3.2,3.9-3.2c1.7,0,3,0.5,4.1,1.5l-0.8,1c-1.1-0.9-2.2-1.3-3.4-1.3c-1.5,0-2.5,0.8-2.5,1.9v0
				c0,1.1,0.6,1.7,3.2,2.3c2.6,0.6,3.8,1.5,3.8,3.3v0c0,2-1.7,3.3-4,3.3C342.1,68.3,340.5,67.7,339.1,66.5z"/>
		</g>
		<g>
			<path fill="#022169" d="M84.1,4H70.6v-4.2h31.5V4H88.6v36h-4.6V4z"/>
			<path fill="#022169" d="M105.9,10.4h4.4v7.7c2.2-4.9,6.5-8.5,12.1-8.3v4.8h-0.3c-6.5,0-11.8,4.6-11.8,13.6V40h-4.4V10.4z"/>
			<path fill="#022169" d="M132.1,28.8V10.4h4.4v17.3c0,5.5,3,8.9,8.2,8.9c5,0,8.9-3.7,8.9-9.3v-17h4.4V40h-4.4v-5.2
				c-2,3.2-5,5.8-10.1,5.8C136.3,40.6,132.1,35.8,132.1,28.8z"/>
			<path fill="#022169" d="M182.1,36.8c4.1,0,6.9-1.7,9.3-4.2l2.8,2.5c-3,3.3-6.6,5.6-12.2,5.6c-8.1,0-14.8-6.3-14.8-15.5
				c0-8.6,6-15.5,14.2-15.5c8.8,0,13.8,7,13.8,15.7c0,0.4,0,0.9-0.1,1.5h-23.5C172.3,33.2,176.9,36.8,182.1,36.8z M190.8,23.4
				c-0.5-5.4-3.6-10-9.5-10c-5.1,0-9,4.2-9.6,10H190.8z"/>
			<path fill="#022169" d="M204.1,10.4h4.4v6c2.4-3.6,5.9-6.6,11.4-6.6c7.1,0,14.2,5.6,14.2,15.4v0.1c0,9.7-7,15.4-14.2,15.4
				c-5.5,0-9.1-3-11.4-6.3v14.9h-4.4V10.4z M229.5,25.3v-0.1c0-7-4.8-11.5-10.4-11.5c-5.5,0-10.7,4.6-10.7,11.4v0.1
				c0,6.9,5.2,11.5,10.7,11.5C224.8,36.7,229.5,32.4,229.5,25.3z"/>
			<path fill="#022169" d="M241.5,25.3v-0.1c0-8.4,6.5-15.5,15.5-15.5c8.9,0,15.4,7,15.4,15.4v0.1c0,8.4-6.6,15.5-15.5,15.5
				C248,40.7,241.5,33.7,241.5,25.3z M267.9,25.3v-0.1c0-6.4-4.8-11.6-11-11.6c-6.4,0-10.8,5.2-10.8,11.5v0.1
				c0,6.4,4.7,11.5,11,11.5C263.4,36.7,267.9,31.6,267.9,25.3z"/>
			<path fill="#022169" d="M281.6-1h5v4.9h-5V-1z M281.9,10.4h4.4V40h-4.4V10.4z"/>
			<path fill="#022169" d="M297.8,10.4h4.4v5.2c1.9-3.2,5-5.8,10.1-5.8c7.2,0,11.4,4.8,11.4,11.9V40h-4.4V22.7c0-5.5-3-8.9-8.2-8.9
				c-5.1,0-8.9,3.7-8.9,9.3v17h-4.4V10.4z"/>
			<path fill="#022169" d="M334,32.1V14.3h-4.1v-3.9h4.1V1.4h4.4v8.9h9.4v3.9h-9.4v17.3c0,3.6,2,4.9,5,4.9c1.5,0,2.8-0.3,4.3-1v3.8
				c-1.5,0.8-3.2,1.3-5.3,1.3C337.7,40.5,334,38.2,334,32.1z"/>
		</g>
	</g>
	<path fill="#022169" d="M62.4,31.1c0,17.2-14,31.2-31.2,31.2C14,62.3,0,48.3,0,31.1C0,13.9,14-0.1,31.2-0.1
		C48.4-0.1,62.4,13.9,62.4,31.1z"/>
	<polygon fill="#FFFFFF" points="45.1,43.8 32.5,14.7 30,14.7 17.2,44 20.5,47.5 31.3,22.9 41.8,47.4 	"/>
</g>
</svg>
